<svg version="1.1" id="Layer_1" xmlns="http://www.w3.org/2000/svg" xmlns:xlink="http://www.w3.org/1999/xlink" x="0px" y="0px"
	 width="100%" viewBox="0 0 338 86" enable-background="new 0 0 338 86" xml:space="preserve">
<path fill="#1C1C1C" opacity="1.000000" stroke="none" 
	d="
M166.000000,87.000000 
	C139.979111,87.000000 113.958214,87.000000 87.414940,86.641190 
	C85.024139,83.909874 82.656250,81.774445 81.393593,79.114388 
	C78.934273,73.933334 77.094147,68.458366 75.435516,63.016457 
	C78.121704,62.927792 80.369957,62.927792 82.910591,62.927792 
	C82.910591,45.333046 82.939667,28.520832 82.839134,11.709390 
	C82.833038,10.688998 81.797401,9.674764 81.240807,8.657663 
	C80.747772,8.849303 80.254730,9.040943 79.761696,9.232583 
	C79.761696,25.989378 79.761696,42.746174 79.761696,59.619263 
	C76.952332,59.619263 74.592354,59.619263 72.341064,59.619263 
	C72.341064,43.547779 72.341064,27.806545 72.341064,12.065311 
	C72.798576,11.955093 73.256088,11.844875 73.713608,11.734657 
	C74.062645,13.134621 74.705643,14.532689 74.714684,15.934846 
	C74.794174,28.266346 74.750153,40.598595 74.774414,52.930561 
	C74.777412,54.454193 74.966080,55.977463 75.108192,58.086967 
	C77.866119,55.382229 78.843391,19.558300 77.085182,9.273293 
	C74.504517,9.273293 71.938637,9.273293 68.894730,9.273293 
	C68.894730,23.399944 68.894730,37.201187 68.552917,50.935520 
	C67.673912,50.510475 66.888748,50.276680 66.637321,49.775261 
	C63.631992,43.781803 60.845421,37.673744 57.677155,31.769781 
	C56.681141,29.913740 54.715816,28.577866 53.123222,26.540188 
	C53.052292,20.396206 53.052292,14.715945 53.052292,9.087206 
	C50.598534,8.973164 48.797371,8.889451 46.929924,8.467935 
	C45.909100,5.753421 44.954548,3.376710 44.000000,1.000000 
	C66.687561,1.000000 89.375122,1.000000 112.543396,1.373184 
	C113.681580,4.095735 114.339043,6.445102 114.532486,8.859739 
	C108.207687,8.925010 102.346924,8.925010 96.486160,8.925010 
	C96.436317,9.690784 96.386482,10.456559 96.336647,11.222335 
	C104.658127,12.944041 113.433311,11.284545 121.831802,12.432295 
	C121.806808,12.893662 121.781815,13.355029 121.756821,13.816397 
	C113.450287,13.816397 105.143761,13.816397 96.675995,13.816397 
	C96.675995,30.294006 96.675995,46.186546 96.675995,62.619061 
	C102.411949,62.619061 107.892410,62.249523 113.306129,62.693638 
	C125.750816,63.714539 134.405563,58.314171 140.660736,47.899155 
	C142.140381,49.638313 143.211258,51.262970 144.410736,52.786385 
	C146.590897,55.555340 148.847473,58.264126 151.199554,61.243217 
	C151.551437,61.989262 151.775894,62.490112 152.051254,63.344048 
	C153.915344,66.643707 155.766647,69.567657 157.533051,72.542023 
	C160.384766,77.343895 163.180573,82.178955 166.000000,87.000000 
M141.378326,76.583336 
	C140.612000,77.401985 139.845673,78.220627 139.079361,79.039276 
	C140.033340,79.673683 141.098618,80.919945 141.910324,80.772278 
	C142.740067,80.621323 143.439392,79.156784 143.903564,78.134575 
	C143.988602,77.947311 142.674835,77.124840 141.378326,76.583336 
M121.489876,80.040108 
	C122.262421,79.744942 123.575401,79.595085 123.701515,79.126099 
	C124.020905,77.938301 123.807510,76.607239 123.807510,75.086433 
	C121.732742,75.881165 119.126038,76.177216 121.489876,80.040108 
M114.927414,76.772209 
	C113.995483,76.888298 113.063560,77.004379 112.131630,77.120468 
	C112.446014,78.211418 112.760399,79.302361 113.074783,80.393311 
	C113.713173,79.410812 114.351570,78.428322 114.927414,76.772209 
M103.144409,76.460281 
	C103.220924,77.757942 103.297440,79.055611 103.373947,80.353271 
	C103.956055,80.219887 104.538162,80.086502 105.120270,79.953117 
	C104.599152,78.629364 104.078033,77.305611 103.144409,76.460281 
M130.222565,79.764008 
	C130.803345,78.667213 131.384125,77.570419 131.964905,76.473625 
	C131.423965,76.302032 130.883041,76.130432 130.342117,75.958839 
	C130.243454,77.011620 130.144775,78.064400 130.222565,79.764008 
M152.309021,77.150993 
	C153.028076,77.334381 153.747131,77.517761 154.466202,77.701141 
	C154.539963,77.366791 154.613739,77.032433 154.687515,76.698082 
	C153.959564,76.698082 153.231598,76.698082 152.309021,77.150993 
M149.870987,80.665802 
	C149.938095,80.549911 150.005219,80.434013 150.072342,80.318115 
	C149.967590,80.367126 149.862854,80.416138 149.870987,80.665802 
z"/>
<path fill="#181818" opacity="1.000000" stroke="none" 
	d="
M74.997574,63.105125 
	C77.094147,68.458366 78.934273,73.933334 81.393593,79.114388 
	C82.656250,81.774445 85.024139,83.909874 86.946281,86.641190 
	C58.391766,87.000000 29.783533,87.000000 1.087649,87.000000 
	C1.087649,58.450439 1.087649,29.900518 1.087649,1.000000 
	C15.018947,1.000000 29.040815,1.000000 43.531342,1.000000 
	C44.954548,3.376710 45.909100,5.753421 46.490723,8.535159 
	C44.008419,8.940187 41.899036,8.940187 39.410702,8.940187 
	C39.410702,15.585816 39.293026,21.718134 39.481804,27.841003 
	C39.539066,29.698282 40.443314,31.529448 41.016708,33.921394 
	C39.651554,33.822758 37.907940,33.503166 36.858929,32.474934 
	C29.740520,25.497530 22.832945,18.304607 15.692216,11.350786 
	C14.354465,10.048053 12.273425,9.508590 10.535394,8.616897 
	C10.282866,9.039973 10.030337,9.463050 9.777810,9.886126 
	C10.246728,10.502655 10.651699,11.183031 11.194055,11.726237 
	C20.935123,21.482571 30.661205,31.254395 40.482983,40.929008 
	C41.863407,42.288750 43.761292,43.157768 40.034595,43.540283 
	C29.505226,32.760155 19.172710,22.308605 8.414289,11.426243 
	C8.414289,29.216204 8.414289,46.008034 8.414289,62.799862 
	C8.897639,62.884239 9.380990,62.968616 9.864340,63.052994 
	C10.205413,61.603764 10.832581,60.156483 10.842462,58.705002 
	C10.924120,46.708164 10.881433,34.710526 10.908921,22.713205 
	C10.911664,21.515936 11.130681,20.319162 11.364325,17.961893 
	C16.946569,24.256315 21.773056,29.698559 26.098135,35.547203 
	C21.687513,32.289143 17.778301,28.624683 13.418091,24.537466 
	C13.418091,37.778210 13.418091,50.151283 13.418091,62.601463 
	C16.131983,62.601463 18.527498,62.601463 20.889921,62.601463 
	C22.241024,48.071953 21.595787,40.521786 17.940918,37.726559 
	C17.940918,45.590797 17.940918,52.772846 17.940918,59.954895 
	C17.468048,59.923275 16.995178,59.891655 16.522308,59.860039 
	C16.522308,50.492733 16.522308,41.125431 16.522308,31.061735 
	C26.420506,41.002460 36.056232,50.386055 45.286953,60.152443 
	C47.650864,62.653534 49.685520,63.383781 53.194149,62.462654 
	C53.194149,50.590340 53.194149,38.797123 53.194149,27.003910 
	C54.715816,28.577866 56.681141,29.913740 57.677155,31.769781 
	C60.845421,37.673744 63.631992,43.781803 66.637321,49.775261 
	C66.888748,50.276680 67.673912,50.510475 68.637070,51.389183 
	C69.063049,55.464321 69.063049,59.018887 69.063049,62.666275 
	C71.450165,62.842796 73.223869,62.973961 74.997574,63.105125 
M71.427147,77.482521 
	C71.427147,77.482521 71.555618,77.411621 71.427147,77.482521 
M74.477402,75.745445 
	C74.477402,75.745445 74.590630,75.482758 74.590630,75.482758 
	C74.590630,75.482758 74.336929,75.544426 74.477402,75.745445 
M74.458389,80.491150 
	C74.458389,80.491150 74.516693,80.464294 74.458389,80.491150 
z"/>
<path fill="#232323" opacity="1.000000" stroke="none" 
	d="
M198.000000,1.000002 
	C216.020889,1.000000 234.041794,1.000000 252.586609,1.348240 
	C254.072372,4.076784 255.034210,6.457088 255.630219,8.942892 
	C245.580780,11.923260 241.149033,16.888601 240.961380,25.073502 
	C240.795731,32.297539 245.348740,37.806435 254.231827,41.126461 
	C255.936707,41.763657 257.896790,42.061932 259.282288,43.116657 
	C260.776581,44.254227 261.734375,46.096573 262.926208,47.631470 
	C261.047211,48.319958 258.997925,49.859547 257.323669,49.524612 
	C253.516602,48.763023 249.893753,47.080517 245.701920,45.597496 
	C243.715179,48.809486 241.588364,52.247906 239.256638,56.017647 
	C247.142075,60.832588 254.626923,64.909172 263.938812,62.073334 
	C270.192902,60.168724 274.368866,56.179825 275.722595,49.824440 
	C277.035248,43.661999 275.295471,38.109550 270.036560,34.410828 
	C267.117126,32.357517 263.494263,31.328125 260.273346,29.672100 
	C257.701904,28.349993 252.855499,28.222042 254.418320,23.911415 
	C255.824112,20.033913 259.830444,22.076975 262.727295,22.810329 
	C265.839508,23.598202 268.853912,24.772528 271.973907,26.137047 
	C273.594208,29.021603 274.746674,31.959986 276.802795,33.977440 
	C279.976044,37.091091 281.973389,42.037395 287.636353,42.437828 
	C287.719543,49.489933 287.719543,56.078022 287.719543,62.608421 
	C292.661713,62.608421 296.954102,62.608421 301.632202,62.715572 
	C311.222137,70.406166 320.431763,77.983147 329.607361,85.601097 
	C329.914001,85.855675 329.876892,86.524353 330.000000,87.000000 
	C306.979095,87.000000 283.958221,87.000000 260.457886,86.636993 
	C257.454803,83.869774 254.931183,81.465569 252.461395,78.692383 
	C252.073334,77.244659 251.631424,76.165932 250.926270,74.861877 
	C249.897751,73.385284 249.278305,72.010674 248.342194,70.903908 
	C244.106140,65.895584 239.873566,60.878056 235.451935,56.035309 
	C232.855301,53.191341 229.906708,50.668739 227.031799,47.539543 
	C226.941055,35.579597 226.974670,24.081352 226.873901,12.584284 
	C226.862473,11.280136 226.095230,9.982613 225.678452,8.682018 
	C225.086090,8.811303 224.493729,8.940588 223.901367,9.069873 
	C223.901367,25.971460 223.901367,42.873047 223.901367,59.643444 
	C221.089127,59.643444 218.834030,59.643444 216.625717,59.643444 
	C215.151703,44.763824 215.971008,14.263100 218.946259,10.923699 
	C218.946259,27.249258 218.946259,42.400410 218.946259,57.551559 
	C219.841385,57.542385 220.736526,57.533215 221.631653,57.524040 
	C221.639450,41.413971 221.638702,25.303745 221.634903,9.267231 
	C218.498199,9.267231 216.089783,9.267231 213.073792,9.267231 
	C213.073792,14.064310 213.073792,18.531494 212.725250,22.948616 
	C207.584473,15.599038 202.792236,8.299521 198.000000,1.000002 
z"/>
<path fill="#272727" opacity="1.000000" stroke="none" 
	d="
M255.996063,8.837391 
	C255.034210,6.457088 254.072372,4.076784 253.055267,1.348240 
	C275.020905,1.000000 297.041779,1.000000 319.587341,1.339499 
	C321.750763,4.144736 323.389526,6.610474 324.994629,9.538959 
	C324.960938,17.299355 324.960938,24.597004 324.960938,31.894653 
	C325.580048,31.973808 326.199188,32.052963 326.818298,32.132118 
	C329.567505,25.805311 326.462250,18.420916 329.188324,11.962653 
	C329.891113,13.611465 330.085297,15.272558 330.088501,16.934021 
	C330.115204,30.767132 330.076080,44.600479 330.151733,58.433235 
	C330.160156,59.977325 330.760651,61.518173 331.086578,63.060520 
	C331.789642,62.960930 332.492737,62.861340 333.195801,62.761749 
	C333.195801,48.175606 333.195801,33.589466 333.568420,19.004755 
	C335.627380,19.337456 337.313690,19.668728 339.000000,20.000000 
	C339.000000,42.333355 339.000000,64.666710 339.000000,87.000000 
	C336.281403,87.000000 333.631744,87.000000 330.491058,87.000000 
	C329.876892,86.524353 329.914001,85.855675 329.607361,85.601097 
	C320.431763,77.983147 311.222137,70.406166 301.616455,62.274117 
	C301.215027,56.259098 301.215027,50.792690 301.215027,45.101257 
	C300.262024,45.101257 299.078583,45.037384 299.070099,45.110374 
	C298.510590,49.913818 298.045990,54.728321 297.572449,59.549206 
	C295.453674,59.556557 293.335449,59.556557 290.941956,59.556557 
	C290.941956,43.647923 290.941956,27.945513 290.941956,12.286810 
	C293.499390,12.286810 295.710815,12.286810 298.094147,12.286810 
	C298.094147,16.644512 298.023590,20.634823 298.156372,24.618353 
	C298.181580,25.374012 299.012726,26.102810 299.472015,26.844006 
	C300.060577,26.075794 301.135193,25.322193 301.158813,24.536980 
	C301.312408,19.429268 301.237701,14.314691 301.237701,9.242023 
	C296.487305,9.242023 292.248535,9.242023 287.553192,9.242023 
	C287.553192,20.352322 287.553192,31.163067 287.553192,41.973812 
	C281.973389,42.037395 279.976044,37.091091 276.802795,33.977440 
	C274.746674,31.959986 273.594208,29.021603 272.029785,25.798271 
	C272.972870,23.462326 273.923065,21.823977 274.970276,20.018284 
	C273.539642,19.097929 272.331390,18.320635 271.642761,17.372452 
	C272.495148,17.052376 272.827850,16.903185 273.503235,16.847210 
	C274.848511,16.997772 275.851135,17.055119 276.853790,17.112463 
	C276.291809,16.156761 275.921356,14.586815 275.137543,14.342441 
	C268.800903,12.366733 262.386658,10.640047 255.996063,8.837391 
M292.950989,55.263081 
	C293.531799,56.178955 294.112610,57.094830 294.693451,58.010704 
	C295.145416,57.131168 295.957367,56.263832 295.987701,55.369999 
	C296.127380,51.248432 296.049286,47.119480 296.049286,42.893536 
	C303.910645,42.893536 311.298370,42.893536 319.159973,42.893536 
	C319.159973,49.581059 319.159973,56.000053 319.159973,62.651970 
	C322.205872,62.651970 324.775848,62.651970 327.583435,62.651970 
	C327.583435,53.225224 327.583435,44.030880 327.583435,34.417511 
	C316.468536,34.417511 305.675629,34.382183 294.884277,34.497852 
	C294.172974,34.505478 293.473969,35.665359 292.769257,36.289280 
	C292.976105,36.634293 293.182953,36.979305 293.389801,37.324318 
	C303.810547,37.324318 314.231293,37.324318 324.738159,37.324318 
	C324.738159,44.966076 324.738159,52.255733 324.738159,59.644211 
	C324.039276,59.644211 323.121735,59.681698 323.118011,59.638905 
	C322.543243,53.097351 322.034485,46.550007 321.527405,40.059807 
	C311.998352,40.059807 302.590637,40.059807 292.950409,40.059807 
	C292.950409,45.004864 292.950409,49.656200 292.950989,55.263081 
M322.032959,17.553654 
	C322.032959,14.702437 322.032959,11.851222 322.032959,9.000006 
	C321.252899,8.945767 320.472809,8.891528 319.692749,8.837290 
	C319.501770,11.917328 319.225250,14.995062 319.142242,18.078007 
	C319.046021,21.651438 319.119812,25.229448 319.119812,28.642342 
	C310.997253,28.642342 303.596985,28.642342 296.025024,28.642342 
	C296.025024,24.168259 296.093842,20.018063 295.953003,15.874995 
	C295.931152,15.232264 294.950470,14.622124 294.413177,13.996915 
	C293.938782,14.513786 293.061920,15.023115 293.052063,15.548689 
	C292.950806,20.951347 292.989960,26.356638 292.989960,31.632902 
	C303.064331,31.632902 312.328400,31.632902 322.032928,31.632902 
	C322.032928,27.111217 322.032928,22.823092 322.032959,17.553654 
z"/>
<path fill="#212121" opacity="1.000000" stroke="none" 
	d="
M197.531342,1.000002 
	C202.792236,8.299521 207.584473,15.599038 212.841492,23.404978 
	C213.306259,36.833107 213.306259,49.754818 213.306259,62.638260 
	C218.259201,62.638260 222.358337,62.638260 227.116409,62.638260 
	C227.116409,57.575130 227.116409,52.788361 227.116409,48.001595 
	C229.906708,50.668739 232.855301,53.191341 235.451935,56.035309 
	C239.873566,60.878056 244.106140,65.895584 248.342194,70.903908 
	C249.278305,72.010674 249.897751,73.385284 250.862396,75.214355 
	C251.019363,77.084023 248.814529,79.266045 252.407578,79.061356 
	C254.931183,81.465569 257.454803,83.869774 259.989197,86.636993 
	C245.645767,87.000000 231.291550,87.000000 216.414902,86.655045 
	C209.541824,78.092300 203.191162,69.874519 196.766937,61.215275 
	C196.693359,43.563881 196.693359,26.353947 196.693359,9.249689 
	C193.476166,9.249689 191.069489,9.249689 188.340591,9.249689 
	C188.340591,16.210562 188.275970,22.844503 188.413879,29.474236 
	C188.433411,30.412701 189.439331,31.330650 189.988693,32.258095 
	C190.615143,32.098564 191.241592,31.939032 191.868042,31.779499 
	C191.868042,25.178280 191.868042,18.577059 191.868042,11.975840 
	C192.505142,12.011257 193.142258,12.046674 193.779358,12.082091 
	C193.779358,26.722225 193.779358,41.362362 193.391724,56.000839 
	C192.487259,55.994759 191.970428,55.990334 191.369370,55.524818 
	C191.285141,48.310795 191.285141,41.557861 191.285141,34.603367 
	C187.191696,34.411705 183.596283,34.243362 180.000580,33.745438 
	C179.999908,32.976418 179.999542,32.536980 180.425110,32.009048 
	C182.429688,31.820206 184.008301,31.719849 185.894012,31.599970 
	C185.894012,24.608347 185.961838,18.019459 185.815918,11.435302 
	C185.795624,10.519128 184.722305,9.626291 184.136444,8.722651 
	C183.724365,8.885664 183.312286,9.048677 182.900208,9.211691 
	C182.900208,15.756043 182.900208,22.300396 182.900208,28.802818 
	C180.615082,28.802818 178.806900,28.802818 176.984741,28.443321 
	C174.009293,22.594915 170.988449,17.136944 168.108032,11.605836 
	C166.296509,8.127241 164.695480,4.539031 163.000000,0.999999 
	C174.354233,1.000000 185.708450,1.000000 197.531342,1.000002 
M222.081909,80.256142 
	C222.081909,80.256142 222.395386,80.242249 222.395386,80.242249 
	C222.395386,80.242249 222.069824,79.952415 221.940933,79.279099 
	C219.623978,75.332573 219.305954,75.336700 216.391754,80.065735 
	C218.531082,80.065735 220.243408,80.065735 222.081909,80.256142 
M240.330978,79.507362 
	C241.074509,79.766983 241.818024,80.026604 242.561554,80.286224 
	C242.732788,80.014793 242.904022,79.743362 243.075256,79.471931 
	C242.069031,78.166862 241.062805,76.861801 239.363159,74.657356 
	C238.301239,77.380623 237.813309,78.631935 237.105362,80.447456 
	C238.557022,79.881516 239.158844,79.646889 240.330978,79.507362 
M229.879044,79.629128 
	C230.736252,78.684380 231.593475,77.739639 232.450684,76.794899 
	C231.948395,76.503044 231.446106,76.211189 230.943817,75.919327 
	C230.422165,77.222931 229.900513,78.526535 229.879044,79.629128 
z"/>
<path fill="#1F1F1F" opacity="1.000000" stroke="none" 
	d="
M191.453598,55.985909 
	C191.970428,55.990334 192.487259,55.994759 193.453033,56.420433 
	C193.901978,58.848972 193.901978,60.856270 193.901978,63.730766 
	C195.578323,62.547592 196.209412,62.102169 196.840500,61.656742 
	C203.191162,69.874519 209.541824,78.092300 215.946243,86.655045 
	C199.645767,87.000000 183.291550,87.000000 166.468658,87.000000 
	C163.180573,82.178955 160.384766,77.343895 157.533051,72.542023 
	C155.766647,69.567657 153.915344,66.643707 152.514420,63.313072 
	C156.830261,62.929012 160.733841,62.929012 164.547562,62.929012 
	C165.808044,49.644291 165.303757,45.952656 161.899628,45.217319 
	C161.899628,50.052185 161.899628,54.810276 161.899628,59.461235 
	C159.222260,59.461235 156.966446,59.461235 154.448349,59.461235 
	C154.448349,46.452560 154.448349,33.727093 154.673981,21.002804 
	C155.200439,21.002985 155.501282,21.001961 155.870087,21.457312 
	C155.938049,25.172611 155.938049,28.431509 155.938049,31.714678 
	C158.731888,31.866674 160.865692,31.982763 162.999680,32.427765 
	C163.000031,33.195240 163.000183,33.633793 162.581131,34.189209 
	C160.322296,34.567444 158.482635,34.828815 156.642990,35.090191 
	C156.718170,35.735870 156.793365,36.381554 156.868546,37.027233 
	C159.210526,37.136200 161.552505,37.245163 163.873444,37.641319 
	C163.866196,38.502651 163.879974,39.076794 163.436081,39.690956 
	C161.037003,39.730976 159.095581,39.730976 157.282318,39.730976 
	C157.282318,46.161518 157.282318,52.081081 157.282318,58.000645 
	C157.911118,58.048656 158.539902,58.096672 159.168701,58.144688 
	C159.438721,53.073639 159.708740,48.002590 159.980728,42.894699 
	C167.739410,42.894699 175.133743,42.894699 183.085052,42.894699 
	C183.085052,49.682537 183.085052,56.238205 183.085052,62.659683 
	C186.064087,62.659683 188.479492,62.659683 191.049591,62.659683 
	C191.194855,60.260277 191.324219,58.123093 191.453598,55.985909 
M202.273392,77.526505 
	C201.688110,77.068344 201.102844,76.610176 200.517593,76.152016 
	C200.044220,76.863991 199.570847,77.575974 199.097458,78.287956 
	C199.839005,78.610626 200.580566,78.933289 201.565018,79.588646 
	C201.772552,79.099327 201.980087,78.610001 202.273392,77.526505 
M176.900818,77.575684 
	C177.812683,78.301613 178.628174,79.338150 179.665421,79.659950 
	C180.574234,79.941917 181.836258,79.620850 182.727493,79.155144 
	C183.074020,78.974068 183.138458,77.184090 182.797745,76.967865 
	C181.955078,76.433083 180.807343,76.214134 179.776154,76.195091 
	C178.994843,76.180656 178.204224,76.669914 176.900818,77.575684 
M192.445969,78.489922 
	C192.445969,78.489922 192.515533,78.455727 192.445969,78.489922 
z"/>
<path fill="#1F1F1F" opacity="1.000000" stroke="none" 
	d="
M114.996506,8.794470 
	C114.339043,6.445102 113.681580,4.095735 113.012054,1.373184 
	C123.687561,1.000000 134.375122,1.000000 145.585052,1.359281 
	C147.860046,4.199582 149.612640,6.680602 151.361938,9.619799 
	C151.263153,27.051325 151.167648,44.024673 151.072144,60.998024 
	C148.847473,58.264126 146.590897,55.555340 144.410736,52.786385 
	C143.211258,51.262970 142.140381,49.638313 140.752716,47.515526 
	C148.289871,30.917624 136.975845,7.556201 114.996506,8.794470 
z"/>
<path fill="#202020" opacity="1.000000" stroke="none" 
	d="
M151.365234,9.161625 
	C149.612640,6.680602 147.860046,4.199582 146.053711,1.359281 
	C151.354935,1.000000 156.709854,1.000000 162.532394,0.999999 
	C164.695480,4.539031 166.296509,8.127241 168.108032,11.605836 
	C170.988449,17.136944 174.009293,22.594915 176.520844,28.510986 
	C170.636322,28.938148 165.201706,28.938148 159.599045,28.938148 
	C159.599045,25.516634 159.599747,22.693089 159.598892,19.869543 
	C159.597183,14.244491 159.596832,14.244491 155.802124,14.600541 
	C155.802124,16.708542 155.802124,18.854727 155.802124,21.000912 
	C155.501282,21.001961 155.200439,21.002985 154.590027,20.607067 
	C154.280472,17.563013 154.280472,14.915874 154.280472,12.098858 
	C156.883255,12.098858 159.176804,12.098858 162.056122,12.098858 
	C162.056122,17.046257 162.056122,21.929604 162.056122,27.127720 
	C165.186417,25.336882 165.960037,17.064415 164.275162,9.161626 
	C159.979294,9.161626 155.672256,9.161626 151.365234,9.161625 
z"/>
<path fill="#2A2A2A" opacity="1.000000" stroke="none" 
	d="
M325.028290,9.076210 
	C323.389526,6.610474 321.750763,4.144736 320.056000,1.339499 
	C326.259247,1.000000 332.518463,1.000000 339.000000,1.000000 
	C339.000000,7.018606 339.000000,13.039927 339.000000,19.530624 
	C337.313690,19.668728 335.627380,19.337456 333.498840,18.549141 
	C333.056641,15.074812 333.056641,12.057526 333.056641,9.076209 
	C329.905304,9.076209 327.466797,9.076209 325.028290,9.076210 
z"/>
<path fill="#E5E5E5" opacity="1.000000" stroke="none" 
	d="
M114.532478,8.859740 
	C136.975845,7.556201 148.289871,30.917624 140.401932,47.355381 
	C134.405563,58.314171 125.750816,63.714539 113.306129,62.693638 
	C107.892410,62.249523 102.411949,62.619061 96.675995,62.619061 
	C96.675995,46.186546 96.675995,30.294006 96.675995,13.816397 
	C105.143761,13.816397 113.450287,13.816397 121.756821,13.816397 
	C121.781815,13.355029 121.806808,12.893662 121.831802,12.432295 
	C113.433311,11.284545 104.658127,12.944041 96.336647,11.222335 
	C96.386482,10.456559 96.436317,9.690784 96.486160,8.925010 
	C102.346924,8.925010 108.207687,8.925010 114.532478,8.859740 
M130.758789,51.775333 
	C129.791504,52.810638 128.824219,53.845940 127.856934,54.881245 
	C128.209229,55.266495 128.561508,55.651749 128.913803,56.036999 
	C130.287003,54.917965 131.660187,53.798931 133.690475,52.283794 
	C134.453323,51.064926 135.216171,49.846054 135.979004,48.627186 
	C135.526932,48.289845 135.074860,47.952503 134.622787,47.615162 
	C133.549713,48.828201 132.476654,50.041241 130.758789,51.775333 
M134.514328,38.608189 
	C134.363953,36.223537 134.213593,33.838890 134.007187,30.780731 
	C131.444458,27.631054 128.881744,24.481377 126.549744,20.019789 
	C124.963722,19.154957 123.402695,17.601908 121.787384,17.543232 
	C114.398529,17.274841 106.994469,17.425295 99.487335,17.425295 
	C99.487335,31.449648 99.487335,45.348045 99.487335,59.204556 
	C115.111458,61.745594 127.182930,59.770466 128.317642,55.435371 
	C121.644501,56.357647 114.609024,57.329998 107.339615,58.334682 
	C107.339615,46.164047 107.339615,35.181961 107.339615,24.199877 
	C108.084045,24.147459 108.828476,24.095041 109.572906,24.042624 
	C110.428513,33.952122 109.499268,44.021236 110.142029,54.967365 
	C115.177261,54.249428 119.841309,53.584419 124.807091,52.570107 
	C125.744392,51.444820 126.771866,50.381901 127.601509,49.182163 
	C129.800827,46.001732 131.914642,42.762177 134.514328,38.608189 
M137.723511,34.879219 
	C137.839325,36.614071 137.955139,38.348923 138.070938,40.083775 
	C138.745911,39.999809 139.420868,39.915848 140.095825,39.831882 
	C139.674957,35.883606 139.254089,31.935326 138.833206,27.987047 
	C138.136185,28.067955 137.439163,28.148863 136.742142,28.229771 
	C137.032837,30.118279 137.323532,32.006786 137.723511,34.879219 
M135.230942,45.394310 
	C134.915146,46.530472 134.599350,47.666634 134.283554,48.802799 
	C134.955719,49.005920 135.627899,49.209045 136.300064,49.412170 
	C137.349991,46.423828 138.399918,43.435486 139.449829,40.447147 
	C138.848068,40.218960 138.246307,39.990776 137.644547,39.762589 
	C137.032227,41.377308 136.419907,42.992027 135.230942,45.394310 
M123.560158,14.996376 
	C124.547920,15.163747 125.535690,15.331118 126.523453,15.498488 
	C126.475395,14.814992 126.427330,14.131496 126.379272,13.448000 
	C125.086517,13.802301 123.793770,14.156602 123.560158,14.996376 
M127.151222,14.324978 
	C127.606178,15.452222 128.061142,16.579466 128.516098,17.706711 
	C128.998093,17.415581 129.480103,17.124453 129.962097,16.833323 
	C129.423416,16.183229 128.884735,15.533134 127.151222,14.324978 
z"/>
<path fill="#ECECEC" opacity="1.000000" stroke="none" 
	d="
M53.123222,26.540188 
	C53.194149,38.797123 53.194149,50.590340 53.194149,62.462654 
	C49.685520,63.383781 47.650864,62.653534 45.286953,60.152443 
	C36.056232,50.386055 26.420506,41.002460 16.522308,31.061735 
	C16.522308,41.125431 16.522308,50.492733 16.522308,59.860039 
	C16.995178,59.891655 17.468048,59.923275 17.940918,59.954895 
	C17.940918,52.772846 17.940918,45.590797 17.940918,37.726559 
	C21.595787,40.521786 22.241024,48.071953 20.889921,62.601463 
	C18.527498,62.601463 16.131983,62.601463 13.418091,62.601463 
	C13.418091,50.151283 13.418091,37.778210 13.418091,24.537466 
	C17.778301,28.624683 21.687513,32.289143 26.047939,35.503654 
	C30.339212,38.842979 34.179272,42.632240 37.529877,46.556442 
	C40.915970,51.278946 44.791519,55.866516 48.667068,60.454086 
	C49.046635,60.147480 49.426205,59.840870 49.805771,59.534264 
	C49.805771,44.357773 49.805771,29.181284 49.874264,13.643669 
	C49.294456,12.886041 48.646160,12.489535 47.565704,12.005869 
	C45.566708,12.001378 43.999870,12.084047 42.227615,12.177555 
	C42.227615,18.440992 42.292755,24.230045 42.172592,30.015251 
	C42.148590,31.170813 41.417320,32.311684 40.998241,33.422531 
	C40.984310,33.385731 40.959621,33.372574 40.959621,33.372574 
	C40.443314,31.529448 39.539066,29.698282 39.481804,27.841003 
	C39.293026,21.718134 39.410702,15.585816 39.410702,8.940187 
	C41.899036,8.940187 44.008419,8.940187 46.557003,8.872963 
	C48.797371,8.889451 50.598534,8.973164 53.052292,9.087206 
	C53.052292,14.715945 53.052292,20.396206 53.123222,26.540188 
z"/>
<path fill="#E5E5E5" opacity="1.000000" stroke="none" 
	d="
M75.435516,63.016457 
	C73.223869,62.973961 71.450165,62.842796 69.063049,62.666275 
	C69.063049,59.018887 69.063049,55.464321 68.978889,51.456093 
	C68.894730,37.201187 68.894730,23.399944 68.894730,9.273293 
	C71.938637,9.273293 74.504517,9.273293 77.085182,9.273293 
	C78.843391,19.558300 77.866119,55.382229 75.108192,58.086967 
	C74.966080,55.977463 74.777412,54.454193 74.774414,52.930561 
	C74.750153,40.598595 74.794174,28.266346 74.714684,15.934846 
	C74.705643,14.532689 74.062645,13.134621 73.713608,11.734657 
	C73.256088,11.844875 72.798576,11.955093 72.341064,12.065311 
	C72.341064,27.806545 72.341064,43.547779 72.341064,59.619263 
	C74.592354,59.619263 76.952332,59.619263 79.761696,59.619263 
	C79.761696,42.746174 79.761696,25.989378 79.761696,9.232583 
	C80.254730,9.040943 80.747772,8.849303 81.240807,8.657663 
	C81.797401,9.674764 82.833038,10.688998 82.839134,11.709390 
	C82.939667,28.520832 82.910591,45.333046 82.910591,62.927792 
	C80.369957,62.927792 78.121704,62.927792 75.435516,63.016457 
z"/>
<path fill="#E1E1E1" opacity="1.000000" stroke="none" 
	d="
M151.361938,9.619801 
	C155.672256,9.161626 159.979294,9.161626 164.275162,9.161626 
	C165.960037,17.064415 165.186417,25.336882 162.056122,27.127720 
	C162.056122,21.929604 162.056122,17.046257 162.056122,12.098858 
	C159.176804,12.098858 156.883255,12.098858 154.280472,12.098858 
	C154.280472,14.915874 154.280472,17.563013 154.364410,20.605888 
	C154.448349,33.727093 154.448349,46.452560 154.448349,59.461235 
	C156.966446,59.461235 159.222260,59.461235 161.899628,59.461235 
	C161.899628,54.810276 161.899628,50.052185 161.899628,45.217319 
	C165.303757,45.952656 165.808044,49.644291 164.547562,62.929012 
	C160.733841,62.929012 156.830261,62.929012 152.463516,62.959988 
	C151.775894,62.490112 151.551437,61.989262 151.199554,61.243217 
	C151.167648,44.024673 151.263153,27.051325 151.361938,9.619801 
z"/>
<path fill="#222222" opacity="1.000000" stroke="none" 
	d="
M141.692535,76.589455 
	C142.674835,77.124840 143.988602,77.947311 143.903564,78.134575 
	C143.439392,79.156784 142.740067,80.621323 141.910324,80.772278 
	C141.098618,80.919945 140.033340,79.673683 139.079361,79.039276 
	C139.845673,78.220627 140.612000,77.401985 141.692535,76.589455 
z"/>
<path fill="#222222" opacity="1.000000" stroke="none" 
	d="
M121.399597,79.764206 
	C119.126038,76.177216 121.732742,75.881165 123.807510,75.086433 
	C123.807510,76.607239 124.020905,77.938301 123.701515,79.126099 
	C123.575401,79.595085 122.262421,79.744942 121.399597,79.764206 
z"/>
<path fill="#222222" opacity="1.000000" stroke="none" 
	d="
M114.958694,77.109024 
	C114.351570,78.428322 113.713173,79.410812 113.074783,80.393311 
	C112.760399,79.302361 112.446014,78.211418 112.131630,77.120468 
	C113.063560,77.004379 113.995483,76.888298 114.958694,77.109024 
z"/>
<path fill="#222222" opacity="1.000000" stroke="none" 
	d="
M103.350662,76.221069 
	C104.078033,77.305611 104.599152,78.629364 105.120270,79.953117 
	C104.538162,80.086502 103.956055,80.219887 103.373947,80.353271 
	C103.297440,79.055611 103.220924,77.757942 103.350662,76.221069 
z"/>
<path fill="#222222" opacity="1.000000" stroke="none" 
	d="
M130.134338,79.440598 
	C130.144775,78.064400 130.243454,77.011620 130.342117,75.958839 
	C130.883041,76.130432 131.423965,76.302032 131.964905,76.473625 
	C131.384125,77.570419 130.803345,78.667213 130.134338,79.440598 
z"/>
<path fill="#515151" opacity="1.000000" stroke="none" 
	d="
M152.406342,76.924538 
	C153.231598,76.698082 153.959564,76.698082 154.687515,76.698082 
	C154.613739,77.032433 154.539963,77.366791 154.466202,77.701141 
	C153.747131,77.517761 153.028076,77.334381 152.406342,76.924538 
z"/>
<path fill="#222222" opacity="1.000000" stroke="none" 
	d="
M149.814545,80.565475 
	C149.862854,80.416138 149.967590,80.367126 150.072342,80.318115 
	C150.005219,80.434013 149.938095,80.549911 149.814545,80.565475 
z"/>
<path fill="#EAEAEA" opacity="1.000000" stroke="none" 
	d="
M38.019333,46.421505 
	C34.179272,42.632240 30.339212,38.842979 26.549347,35.097260 
	C21.773056,29.698559 16.946569,24.256315 11.364325,17.961893 
	C11.130681,20.319162 10.911664,21.515936 10.908921,22.713205 
	C10.881433,34.710526 10.924120,46.708164 10.842462,58.705002 
	C10.832581,60.156483 10.205413,61.603764 9.864340,63.052994 
	C9.380990,62.968616 8.897639,62.884239 8.414289,62.799862 
	C8.414289,46.008034 8.414289,29.216204 8.414289,11.426243 
	C19.172710,22.308605 29.505226,32.760155 40.236740,43.721794 
	C42.248550,45.828167 43.861366,47.424450 45.775383,49.217026 
	C46.605125,50.815498 47.133671,52.217682 47.662216,53.619869 
	C47.182873,53.891521 46.703529,54.163177 46.224186,54.434830 
	C43.489235,51.763721 40.754284,49.092613 38.019333,46.421505 
z"/>
<path fill="#E5E5E5" opacity="1.000000" stroke="none" 
	d="
M45.474182,49.020733 
	C43.861366,47.424450 42.248550,45.828167 40.433594,44.050377 
	C43.761292,43.157768 41.863407,42.288750 40.482983,40.929008 
	C30.661205,31.254395 20.935123,21.482571 11.194055,11.726237 
	C10.651699,11.183031 10.246728,10.502655 9.777810,9.886126 
	C10.030337,9.463050 10.282866,9.039973 10.535394,8.616897 
	C12.273425,9.508590 14.354465,10.048053 15.692216,11.350786 
	C22.832945,18.304607 29.740520,25.497530 36.858929,32.474934 
	C37.907940,33.503166 39.651554,33.822758 41.016708,33.921394 
	C40.959621,33.372574 40.984310,33.385731 40.381523,33.501797 
	C40.968033,35.612823 42.157322,37.607788 43.346615,39.602749 
	C43.815742,39.422012 44.284874,39.241272 44.754005,39.060535 
	C44.754005,31.793163 44.776020,24.525684 44.739849,17.258493 
	C44.729729,15.224710 44.754707,13.401377 47.620022,14.849140 
	C46.676552,26.521152 49.837517,38.007275 45.474182,49.020733 
z"/>
<path fill="#3C3C3C" opacity="1.000000" stroke="none" 
	d="
M71.491379,77.447067 
	C71.555618,77.411621 71.427147,77.482521 71.491379,77.447067 
z"/>
<path fill="#3C3C3C" opacity="1.000000" stroke="none" 
	d="
M74.407166,75.644936 
	C74.336929,75.544426 74.590630,75.482758 74.590630,75.482758 
	C74.590630,75.482758 74.477402,75.745445 74.407166,75.644936 
z"/>
<path fill="#1C1C1C" opacity="1.000000" stroke="none" 
	d="
M74.487541,80.477722 
	C74.516693,80.464294 74.458389,80.491150 74.487541,80.477722 
z"/>
<path fill="#ECECEC" opacity="1.000000" stroke="none" 
	d="
M271.123138,17.543339 
	C272.331390,18.320635 273.539642,19.097929 274.970276,20.018284 
	C273.923065,21.823977 272.972870,23.462326 271.966858,25.439449 
	C268.853912,24.772528 265.839508,23.598202 262.727295,22.810329 
	C259.830444,22.076975 255.824112,20.033913 254.418320,23.911415 
	C252.855499,28.222042 257.701904,28.349993 260.273346,29.672100 
	C263.494263,31.328125 267.117126,32.357517 270.036560,34.410828 
	C275.295471,38.109550 277.035248,43.661999 275.722595,49.824440 
	C274.368866,56.179825 270.192902,60.168724 263.938812,62.073334 
	C254.626923,64.909172 247.142075,60.832588 239.256638,56.017647 
	C241.588364,52.247906 243.715179,48.809486 245.701920,45.597496 
	C249.893753,47.080517 253.516602,48.763023 257.323669,49.524612 
	C258.997925,49.859547 261.047211,48.319958 262.926208,47.631470 
	C261.734375,46.096573 260.776581,44.254227 259.282288,43.116657 
	C257.896790,42.061932 255.936707,41.763657 254.231827,41.126461 
	C245.348740,37.806435 240.795731,32.297539 240.961380,25.073502 
	C241.149033,16.888601 245.580780,11.923260 255.630219,8.942890 
	C262.386658,10.640047 268.800903,12.366733 275.137543,14.342441 
	C275.921356,14.586815 276.291809,16.156761 276.853790,17.112463 
	C275.851135,17.055119 274.848511,16.997772 273.294128,16.566483 
	C267.208466,14.793089 261.729340,12.599598 256.125519,12.212851 
	C250.277466,11.809250 245.581146,16.347883 244.208298,21.701111 
	C242.725739,27.482021 244.841171,32.908150 250.395599,36.090477 
	C253.667023,37.964790 257.377014,39.061146 260.842468,40.612926 
	C264.080872,42.063026 266.786835,44.173630 265.681427,48.192940 
	C264.589020,52.165104 261.146332,52.945190 257.674286,52.356758 
	C254.002289,51.734436 250.442093,50.452381 246.606964,49.396236 
	C245.581528,51.165497 244.536469,52.968624 242.808319,55.950356 
	C248.707062,57.393276 253.842438,59.326591 259.100464,59.755085 
	C264.966125,60.233093 269.850800,57.320023 272.180695,51.650211 
	C274.199310,46.737797 273.906677,41.897224 269.439209,37.728210 
	C267.783386,36.412270 266.417694,35.106651 264.794220,34.366199 
	C261.780731,32.991741 258.540588,32.111408 255.537537,30.717772 
	C252.699936,29.400913 250.260208,27.404293 251.288040,23.768417 
	C252.297714,20.196745 255.128387,18.712234 258.619781,19.216566 
	C261.540466,19.638458 264.361542,20.737867 267.234436,21.508667 
	C268.324310,21.801077 269.435638,22.013529 270.537170,22.262426 
	C270.716187,21.663237 270.895233,21.064047 271.074249,20.464857 
	C267.451721,19.308857 263.902405,17.691189 260.189911,17.102491 
	C254.269836,16.163723 250.120010,18.678764 249.031433,23.057125 
	C247.912750,27.556601 250.314453,30.998203 256.122864,33.513245 
	C260.364288,35.349770 264.532928,37.354355 268.868225,39.632484 
	C272.316589,46.401257 271.151031,52.589344 266.032166,55.750366 
	C260.796387,58.983582 250.331757,57.541378 246.814636,52.522381 
	C248.310928,52.679337 249.317947,52.678158 250.270279,52.905807 
	C252.686859,53.483486 255.045074,54.391151 257.487976,54.754932 
	C262.378998,55.483265 266.650909,52.973343 267.850494,48.962944 
	C269.206970,44.428055 267.472809,41.176193 262.232880,38.813965 
	C259.071136,37.388607 255.693283,36.409111 252.622528,34.822762 
	C247.197311,32.020107 244.936310,27.086973 246.422119,22.134943 
	C247.955200,17.025349 253.013000,13.406282 258.717651,14.192673 
	C262.926788,14.772910 266.993164,16.388859 271.123138,17.543339 
z"/>
<path fill="#E1E1E1" opacity="1.000000" stroke="none" 
	d="
M227.031799,47.539543 
	C227.116409,52.788361 227.116409,57.575130 227.116409,62.638260 
	C222.358337,62.638260 218.259201,62.638260 213.306259,62.638260 
	C213.306259,49.754818 213.306259,36.833107 213.190033,23.455040 
	C213.073792,18.531494 213.073792,14.064310 213.073792,9.267231 
	C216.089783,9.267231 218.498199,9.267231 221.634903,9.267231 
	C221.638702,25.303745 221.639450,41.413971 221.631653,57.524040 
	C220.736526,57.533215 219.841385,57.542385 218.946259,57.551559 
	C218.946259,42.400410 218.946259,27.249258 218.946259,10.923699 
	C215.971008,14.263100 215.151703,44.763824 216.625717,59.643444 
	C218.834030,59.643444 221.089127,59.643444 223.901367,59.643444 
	C223.901367,42.873047 223.901367,25.971460 223.901367,9.069873 
	C224.493729,8.940588 225.086090,8.811303 225.678452,8.682018 
	C226.095230,9.982613 226.862473,11.280136 226.873901,12.584284 
	C226.974670,24.081352 226.941055,35.579597 227.031799,47.539543 
z"/>
<path fill="#E5E5E5" opacity="1.000000" stroke="none" 
	d="
M287.636353,42.437828 
	C287.553192,31.163067 287.553192,20.352322 287.553192,9.242023 
	C292.248535,9.242023 296.487305,9.242023 301.237701,9.242023 
	C301.237701,14.314691 301.312408,19.429268 301.158813,24.536980 
	C301.135193,25.322193 300.060577,26.075794 299.472015,26.844006 
	C299.012726,26.102810 298.181580,25.374012 298.156372,24.618353 
	C298.023590,20.634823 298.094147,16.644512 298.094147,12.286810 
	C295.710815,12.286810 293.499390,12.286810 290.941956,12.286810 
	C290.941956,27.945513 290.941956,43.647923 290.941956,59.556557 
	C293.335449,59.556557 295.453674,59.556557 297.572449,59.549206 
	C298.045990,54.728321 298.510590,49.913818 299.070099,45.110374 
	C299.078583,45.037384 300.262024,45.101257 301.215027,45.101257 
	C301.215027,50.792690 301.215027,56.259098 301.230774,62.166962 
	C296.954102,62.608421 292.661713,62.608421 287.719543,62.608421 
	C287.719543,56.078022 287.719543,49.489933 287.636353,42.437828 
z"/>
<path fill="#DBDBDB" opacity="1.000000" stroke="none" 
	d="
M252.461395,78.692375 
	C248.814529,79.266045 251.019363,77.084023 251.125671,75.439674 
	C251.631424,76.165932 252.073334,77.244659 252.461395,78.692375 
z"/>
<path fill="#E7E7E7" opacity="1.000000" stroke="none" 
	d="
M292.950684,54.785309 
	C292.950409,49.656200 292.950409,45.004864 292.950409,40.059807 
	C302.590637,40.059807 311.998352,40.059807 321.527405,40.059807 
	C322.034485,46.550007 322.543243,53.097351 323.118011,59.638905 
	C323.121735,59.681698 324.039276,59.644211 324.738159,59.644211 
	C324.738159,52.255733 324.738159,44.966076 324.738159,37.324318 
	C314.231293,37.324318 303.810547,37.324318 293.389801,37.324318 
	C293.182953,36.979305 292.976105,36.634293 292.769257,36.289280 
	C293.473969,35.665359 294.172974,34.505478 294.884277,34.497852 
	C305.675629,34.382183 316.468536,34.417511 327.583435,34.417511 
	C327.583435,44.030880 327.583435,53.225224 327.583435,62.651970 
	C324.775848,62.651970 322.205872,62.651970 319.159973,62.651970 
	C319.159973,56.000053 319.159973,49.581059 319.159973,42.893536 
	C311.298370,42.893536 303.910645,42.893536 296.049286,42.893536 
	C296.049286,47.119480 296.127380,51.248432 295.987701,55.369999 
	C295.957367,56.263832 295.145416,57.131168 294.693451,58.010704 
	C294.112610,57.094830 293.531799,56.178955 292.950684,54.785309 
z"/>
<path fill="#ECECEC" opacity="1.000000" stroke="none" 
	d="
M324.994629,9.538958 
	C327.466797,9.076209 329.905304,9.076209 333.056641,9.076209 
	C333.056641,12.057526 333.056641,15.074812 333.126221,18.547712 
	C333.195801,33.589466 333.195801,48.175606 333.195801,62.761749 
	C332.492737,62.861340 331.789642,62.960930 331.086578,63.060520 
	C330.760651,61.518173 330.160156,59.977325 330.151733,58.433235 
	C330.076080,44.600479 330.115204,30.767132 330.088501,16.934021 
	C330.085297,15.272558 329.891113,13.611465 329.188324,11.962653 
	C326.462250,18.420916 329.567505,25.805311 326.818298,32.132118 
	C326.199188,32.052963 325.580048,31.973808 324.960938,31.894653 
	C324.960938,24.597004 324.960938,17.299355 324.994629,9.538958 
z"/>
<path fill="#F1F1F1" opacity="1.000000" stroke="none" 
	d="
M322.032959,18.044310 
	C322.032928,22.823092 322.032928,27.111217 322.032928,31.632902 
	C312.328400,31.632902 303.064331,31.632902 292.989960,31.632902 
	C292.989960,26.356638 292.950806,20.951347 293.052063,15.548689 
	C293.061920,15.023115 293.938782,14.513786 294.413177,13.996914 
	C294.950470,14.622124 295.931152,15.232264 295.953003,15.874995 
	C296.093842,20.018063 296.025024,24.168259 296.025024,28.642342 
	C303.596985,28.642342 310.997253,28.642342 319.119812,28.642342 
	C319.119812,25.229448 319.046021,21.651438 319.142242,18.078007 
	C319.225250,14.995062 319.501770,11.917328 319.692749,8.837290 
	C320.472809,8.891528 321.252899,8.945767 322.032959,9.000006 
	C322.032959,11.851222 322.032959,14.702437 322.032959,18.044310 
z"/>
<path fill="#DFDFDF" opacity="1.000000" stroke="none" 
	d="
M191.369370,55.524818 
	C191.324219,58.123093 191.194855,60.260277 191.049591,62.659683 
	C188.479492,62.659683 186.064087,62.659683 183.085052,62.659683 
	C183.085052,56.238205 183.085052,49.682537 183.085052,42.894699 
	C175.133743,42.894699 167.739410,42.894699 159.980728,42.894699 
	C159.708740,48.002590 159.438721,53.073639 159.168701,58.144688 
	C158.539902,58.096672 157.911118,58.048656 157.282318,58.000645 
	C157.282318,52.081081 157.282318,46.161518 157.282318,39.730976 
	C159.095581,39.730976 161.037003,39.730976 163.902039,39.791237 
	C171.576248,39.811249 178.326843,39.770992 185.403381,40.029648 
	C185.729309,46.748268 185.729309,53.167980 185.729309,59.587696 
	C186.542160,59.581470 187.355011,59.575245 188.167862,59.569019 
	C188.167862,52.446220 188.206100,45.322514 188.037674,38.203697 
	C188.030411,37.896797 186.118195,37.634968 184.628204,37.253914 
	C177.406860,37.221836 170.650665,37.287983 163.894485,37.354130 
	C161.552505,37.245163 159.210526,37.136200 156.868546,37.027233 
	C156.793365,36.381554 156.718170,35.735870 156.642990,35.090191 
	C158.482635,34.828815 160.322296,34.567444 163.035828,34.307739 
	C169.273438,34.231281 174.637146,34.153152 180.000870,34.075020 
	C183.596283,34.243362 187.191696,34.411705 191.285141,34.603367 
	C191.285141,41.557861 191.285141,48.310795 191.369370,55.524818 
z"/>
<path fill="#DBDBDB" opacity="1.000000" stroke="none" 
	d="
M196.766937,61.215279 
	C196.209412,62.102169 195.578323,62.547592 193.901978,63.730766 
	C193.901978,60.856270 193.901978,58.848972 193.840668,56.422089 
	C193.779358,41.362362 193.779358,26.722225 193.779358,12.082091 
	C193.142258,12.046674 192.505142,12.011257 191.868042,11.975840 
	C191.868042,18.577059 191.868042,25.178280 191.868042,31.779499 
	C191.241592,31.939032 190.615143,32.098564 189.988693,32.258095 
	C189.439331,31.330650 188.433411,30.412701 188.413879,29.474236 
	C188.275970,22.844503 188.340591,16.210562 188.340591,9.249689 
	C191.069489,9.249689 193.476166,9.249689 196.693359,9.249689 
	C196.693359,26.353947 196.693359,43.563881 196.766937,61.215279 
z"/>
<path fill="#EAEAEA" opacity="1.000000" stroke="none" 
	d="
M155.870087,21.457312 
	C155.802124,18.854727 155.802124,16.708542 155.802124,14.600541 
	C159.596832,14.244491 159.597183,14.244491 159.598892,19.869543 
	C159.599747,22.693089 159.599045,25.516634 159.599045,28.938148 
	C165.201706,28.938148 170.636322,28.938148 176.534821,28.870483 
	C178.806900,28.802818 180.615082,28.802818 182.900208,28.802818 
	C182.900208,22.300396 182.900208,15.756043 182.900208,9.211691 
	C183.312286,9.048677 183.724365,8.885664 184.136444,8.722651 
	C184.722305,9.626291 185.795624,10.519128 185.815918,11.435302 
	C185.961838,18.019459 185.894012,24.608347 185.894012,31.599970 
	C184.008301,31.719849 182.429688,31.820206 179.964676,31.921761 
	C173.718689,31.981590 168.359085,32.040218 162.999481,32.098850 
	C160.865692,31.982763 158.731888,31.866674 155.938049,31.714678 
	C155.938049,28.431509 155.938049,25.172611 155.870087,21.457312 
z"/>
<path fill="#202020" opacity="1.000000" stroke="none" 
	d="
M162.999680,32.427765 
	C168.359085,32.040218 173.718689,31.981590 179.538727,32.010250 
	C179.999542,32.536980 179.999908,32.976418 180.000580,33.745438 
	C174.637146,34.153152 169.273438,34.231281 163.455017,34.190880 
	C163.000183,33.633793 163.000031,33.195240 162.999680,32.427765 
z"/>
<path fill="#232323" opacity="1.000000" stroke="none" 
	d="
M240.045807,79.459816 
	C239.158844,79.646889 238.557022,79.881516 237.105362,80.447456 
	C237.813309,78.631935 238.301239,77.380623 239.363159,74.657356 
	C241.062805,76.861801 242.069031,78.166862 243.075256,79.471931 
	C242.904022,79.743362 242.732788,80.014793 242.561554,80.286224 
	C241.818024,80.026604 241.074509,79.766983 240.045807,79.459816 
z"/>
<path fill="#232323" opacity="1.000000" stroke="none" 
	d="
M221.955734,80.065735 
	C220.243408,80.065735 218.531082,80.065735 216.391754,80.065735 
	C219.305954,75.336700 219.623978,75.332573 221.974731,79.641953 
	C222.008530,80.004799 221.955734,80.065735 221.955734,80.065735 
z"/>
<path fill="#232323" opacity="1.000000" stroke="none" 
	d="
M229.628952,79.729637 
	C229.900513,78.526535 230.422165,77.222931 230.943817,75.919327 
	C231.446106,76.211189 231.948395,76.503044 232.450684,76.794899 
	C231.593475,77.739639 230.736252,78.684380 229.628952,79.729637 
z"/>
<path fill="#232323" opacity="1.000000" stroke="none" 
	d="
M222.039185,79.978607 
	C222.069824,79.952415 222.395386,80.242249 222.395386,80.242249 
	C222.395386,80.242249 222.081909,80.256142 222.018829,80.160934 
	C221.955734,80.065735 222.008530,80.004799 222.039185,79.978607 
z"/>
<path fill="#515151" opacity="1.000000" stroke="none" 
	d="
M163.873444,37.641319 
	C170.650665,37.287983 177.406860,37.221836 184.644196,37.551353 
	C185.109390,38.541588 185.093414,39.136166 185.077438,39.730740 
	C178.326843,39.770992 171.576248,39.811249 164.359695,39.751217 
	C163.879974,39.076794 163.866196,38.502651 163.873444,37.641319 
z"/>
<path fill="#515151" opacity="1.000000" stroke="none" 
	d="
M177.159271,77.255356 
	C178.204224,76.669914 178.994843,76.180656 179.776154,76.195091 
	C180.807343,76.214134 181.955078,76.433083 182.797745,76.967865 
	C183.138458,77.184090 183.074020,78.974068 182.727493,79.155144 
	C181.836258,79.620850 180.574234,79.941917 179.665421,79.659950 
	C178.628174,79.338150 177.812683,78.301613 177.159271,77.255356 
z"/>
<path fill="#2A2A2A" opacity="1.000000" stroke="none" 
	d="
M201.322128,79.255951 
	C200.580566,78.933289 199.839005,78.610626 199.097473,78.287956 
	C199.570847,77.575974 200.044220,76.863991 200.517578,76.152008 
	C201.102844,76.610176 201.688110,77.068344 202.077744,78.006958 
	C201.680847,78.732964 201.494202,78.989136 201.322128,79.255951 
z"/>
<path fill="#212121" opacity="1.000000" stroke="none" 
	d="
M201.443573,79.422302 
	C201.494202,78.989136 201.680847,78.732964 202.034851,78.304047 
	C201.980087,78.610001 201.772552,79.099327 201.443573,79.422302 
z"/>
<path fill="#212121" opacity="1.000000" stroke="none" 
	d="
M192.480743,78.472824 
	C192.515533,78.455727 192.445969,78.489922 192.480743,78.472824 
z"/>
<path fill="#1C1C1C" opacity="1.000000" stroke="none" 
	d="
M124.505356,52.919411 
	C119.841309,53.584419 115.177261,54.249428 110.142029,54.967365 
	C109.499268,44.021236 110.428513,33.952122 109.572906,24.042624 
	C108.828476,24.095041 108.084045,24.147459 107.339615,24.199877 
	C107.339615,35.181961 107.339615,46.164047 107.339615,58.334682 
	C114.609024,57.329998 121.644501,56.357647 128.317642,55.435371 
	C127.182930,59.770466 115.111458,61.745594 99.487335,59.204556 
	C99.487335,45.348045 99.487335,31.449648 99.487335,17.425295 
	C106.994469,17.425295 114.398529,17.274841 121.787384,17.543232 
	C123.402695,17.601908 124.963722,19.154957 125.820267,20.613346 
	C117.457649,17.367100 109.528564,19.907972 102.075676,19.439823 
	C102.075676,32.587830 102.075676,45.043987 102.075676,57.500149 
	C102.609337,57.521019 103.142990,57.541889 103.676651,57.562763 
	C105.874298,52.139618 104.322319,46.288502 104.591568,40.672329 
	C104.883064,34.591988 104.657608,28.486866 104.657608,22.078581 
	C108.382881,22.078581 111.560150,22.382849 114.659431,22.020334 
	C123.238007,21.016922 129.417938,28.019218 129.695053,35.207973 
	C129.981827,42.647366 124.167938,48.542015 116.029121,49.397629 
	C114.854240,49.521141 113.750458,50.321117 112.613770,50.808052 
	C113.835274,52.054470 114.647743,52.288200 115.443192,52.240166 
	C117.429192,52.120235 119.411217,51.701550 121.387299,51.745079 
	C122.434761,51.768150 123.466515,52.504864 124.505356,52.919411 
z"/>
<path fill="#DDDDDD" opacity="1.000000" stroke="none" 
	d="
M124.656219,52.744759 
	C123.466515,52.504864 122.434761,51.768150 121.387299,51.745079 
	C119.411217,51.701550 117.429192,52.120235 115.443192,52.240166 
	C114.647743,52.288200 113.835274,52.054470 112.613770,50.808052 
	C113.750458,50.321117 114.854240,49.521141 116.029121,49.397629 
	C124.167938,48.542015 129.981827,42.647366 129.695053,35.207973 
	C129.417938,28.019218 123.238007,21.016922 114.659431,22.020334 
	C111.560150,22.382849 108.382881,22.078581 104.657608,22.078581 
	C104.657608,28.486866 104.883064,34.591988 104.591568,40.672329 
	C104.322319,46.288502 105.874298,52.139618 103.676651,57.562763 
	C103.142990,57.541889 102.609337,57.521019 102.075676,57.500149 
	C102.075676,45.043987 102.075676,32.587830 102.075676,19.439823 
	C109.528564,19.907972 117.457649,17.367100 125.704910,21.269302 
	C128.881744,24.481377 131.444458,27.631054 133.471344,30.947412 
	C132.775833,33.502342 132.534973,35.890511 132.532547,38.278919 
	C132.532120,38.700809 133.527145,39.123707 134.062469,39.546143 
	C131.914642,42.762177 129.800827,46.001732 127.601509,49.182163 
	C126.771866,50.381901 125.744392,51.444820 124.656219,52.744759 
z"/>
<path fill="#1C1C1C" opacity="1.000000" stroke="none" 
	d="
M137.668854,34.387253 
	C137.323532,32.006786 137.032837,30.118279 136.742142,28.229771 
	C137.439163,28.148863 138.136185,28.067955 138.833206,27.987047 
	C139.254089,31.935326 139.674957,35.883606 140.095825,39.831882 
	C139.420868,39.915848 138.745911,39.999809 138.070938,40.083775 
	C137.955139,38.348923 137.839325,36.614071 137.668854,34.387253 
z"/>
<path fill="#1C1C1C" opacity="1.000000" stroke="none" 
	d="
M135.519257,45.000526 
	C136.419907,42.992027 137.032227,41.377308 137.644547,39.762589 
	C138.246307,39.990776 138.848068,40.218960 139.449829,40.447147 
	C138.399918,43.435486 137.349991,46.423828 136.300064,49.412170 
	C135.627899,49.209045 134.955719,49.005920 134.283554,48.802799 
	C134.599350,47.666634 134.915146,46.530472 135.519257,45.000526 
z"/>
<path fill="#1C1C1C" opacity="1.000000" stroke="none" 
	d="
M133.033386,52.679897 
	C131.660187,53.798931 130.287003,54.917965 128.913803,56.036999 
	C128.561508,55.651749 128.209229,55.266495 127.856934,54.881245 
	C128.824219,53.845940 129.791504,52.810638 131.479309,51.881870 
	C132.477676,52.218906 132.755539,52.449402 133.033386,52.679897 
z"/>
<path fill="#1C1C1C" opacity="1.000000" stroke="none" 
	d="
M131.801697,51.621342 
	C132.476654,50.041241 133.549713,48.828201 134.622787,47.615162 
	C135.074860,47.952503 135.526932,48.289845 135.979004,48.627186 
	C135.216171,49.846054 134.453323,51.064926 133.361938,52.481846 
	C132.755539,52.449402 132.477676,52.218906 131.801697,51.621342 
z"/>
<path fill="#1C1C1C" opacity="1.000000" stroke="none" 
	d="
M134.288391,39.077164 
	C133.527145,39.123707 132.532120,38.700809 132.532547,38.278919 
	C132.534973,35.890511 132.775833,33.502342 133.499359,31.284166 
	C134.213593,33.838890 134.363953,36.223537 134.288391,39.077164 
z"/>
<path fill="#1C1C1C" opacity="1.000000" stroke="none" 
	d="
M123.030586,14.753639 
	C123.793770,14.156602 125.086517,13.802301 126.379272,13.448000 
	C126.427330,14.131496 126.475395,14.814992 126.523453,15.498488 
	C125.535690,15.331118 124.547920,15.163747 123.030586,14.753639 
z"/>
<path fill="#1C1C1C" opacity="1.000000" stroke="none" 
	d="
M127.748642,14.604010 
	C128.884735,15.533134 129.423416,16.183229 129.962097,16.833323 
	C129.480103,17.124453 128.998093,17.415581 128.516098,17.706711 
	C128.061142,16.579466 127.606178,15.452222 127.748642,14.604010 
z"/>
<path fill="#181818" opacity="1.000000" stroke="none" 
	d="
M45.775383,49.217026 
	C49.837517,38.007275 46.676552,26.521152 47.718456,14.736384 
	C47.843887,14.181602 48.042477,13.957604 48.335938,13.972630 
	C49.021519,13.993368 49.413647,13.999082 49.805771,14.004794 
	C49.805771,29.181284 49.805771,44.357773 49.805771,59.534264 
	C49.426205,59.840870 49.046635,60.147480 48.667068,60.454086 
	C44.791519,55.866516 40.915970,51.278946 37.529877,46.556442 
	C40.754284,49.092613 43.489235,51.763721 46.224186,54.434830 
	C46.703529,54.163177 47.182873,53.891521 47.662216,53.619869 
	C47.133671,52.217682 46.605125,50.815498 45.775383,49.217026 
z"/>
<path fill="#181818" opacity="1.000000" stroke="none" 
	d="
M47.745453,14.294357 
	C44.754707,13.401377 44.729729,15.224710 44.739849,17.258493 
	C44.776020,24.525684 44.754005,31.793163 44.754005,39.060535 
	C44.284874,39.241272 43.815742,39.422012 43.346615,39.602749 
	C42.157322,37.607788 40.968033,35.612823 40.395454,33.538597 
	C41.417320,32.311684 42.148590,31.170813 42.172592,30.015251 
	C42.292755,24.230045 42.227615,18.440992 42.227615,12.177555 
	C43.999870,12.084047 45.566708,12.001378 47.567726,12.316996 
	C48.015434,13.129391 48.028954,13.543497 48.042477,13.957604 
	C48.042477,13.957604 47.843887,14.181602 47.745453,14.294357 
z"/>
<path fill="#1C1C1C" opacity="1.000000" stroke="none" 
	d="
M48.335938,13.972630 
	C48.028954,13.543497 48.015434,13.129391 47.999886,12.404157 
	C48.646160,12.489535 49.294456,12.886041 49.874264,13.643669 
	C49.413647,13.999082 49.021519,13.993368 48.335938,13.972630 
z"/>
<path fill="#3C3C3C" opacity="1.000000" stroke="none" 
	d="
M269.613068,37.993523 
	C273.906677,41.897224 274.199310,46.737797 272.180695,51.650211 
	C269.850800,57.320023 264.966125,60.233093 259.100464,59.755085 
	C253.842438,59.326591 248.707062,57.393276 242.808319,55.950356 
	C244.536469,52.968624 245.581528,51.165497 246.606964,49.396236 
	C250.442093,50.452381 254.002289,51.734436 257.674286,52.356758 
	C261.146332,52.945190 264.589020,52.165104 265.681427,48.192940 
	C266.786835,44.173630 264.080872,42.063026 260.842468,40.612926 
	C257.377014,39.061146 253.667023,37.964790 250.395599,36.090477 
	C244.841171,32.908150 242.725739,27.482021 244.208298,21.701111 
	C245.581146,16.347883 250.277466,11.809250 256.125519,12.212851 
	C261.729340,12.599598 267.208466,14.793089 272.951477,16.473267 
	C272.827850,16.903185 272.495148,17.052376 271.642761,17.372452 
	C266.993164,16.388859 262.926788,14.772910 258.717651,14.192673 
	C253.013000,13.406282 247.955200,17.025349 246.422119,22.134943 
	C244.936310,27.086973 247.197311,32.020107 252.622528,34.822762 
	C255.693283,36.409111 259.071136,37.388607 262.232880,38.813965 
	C267.472809,41.176193 269.206970,44.428055 267.850494,48.962944 
	C266.650909,52.973343 262.378998,55.483265 257.487976,54.754932 
	C255.045074,54.391151 252.686859,53.483486 250.270279,52.905807 
	C249.317947,52.678158 248.310928,52.679337 246.814636,52.522381 
	C250.331757,57.541378 260.796387,58.983582 266.032166,55.750366 
	C271.151031,52.589344 272.316589,46.401257 269.096344,39.315552 
	C269.331177,38.431286 269.472107,38.212406 269.613068,37.993523 
z"/>
<path fill="#3C3C3C" opacity="1.000000" stroke="none" 
	d="
M268.962128,38.967094 
	C264.532928,37.354355 260.364288,35.349770 256.122864,33.513245 
	C250.314453,30.998203 247.912750,27.556601 249.031433,23.057125 
	C250.120010,18.678764 254.269836,16.163723 260.189911,17.102491 
	C263.902405,17.691189 267.451721,19.308857 271.074249,20.464857 
	C270.895233,21.064047 270.716187,21.663237 270.537170,22.262426 
	C269.435638,22.013529 268.324310,21.801077 267.234436,21.508667 
	C264.361542,20.737867 261.540466,19.638458 258.619781,19.216566 
	C255.128387,18.712234 252.297714,20.196745 251.288040,23.768417 
	C250.260208,27.404293 252.699936,29.400913 255.537537,30.717772 
	C258.540588,32.111408 261.780731,32.991741 264.794220,34.366199 
	C266.417694,35.106651 267.783386,36.412270 269.439209,37.728210 
	C269.472107,38.212406 269.331177,38.431286 268.962128,38.967094 
z"/>
<path fill="#232323" opacity="1.000000" stroke="none" 
	d="
M185.403381,40.029648 
	C185.093414,39.136166 185.109390,38.541588 185.109375,37.649578 
	C186.118195,37.634968 188.030411,37.896797 188.037674,38.203697 
	C188.206100,45.322514 188.167862,52.446220 188.167862,59.569019 
	C187.355011,59.575245 186.542160,59.581470 185.729309,59.587696 
	C185.729309,53.167980 185.729309,46.748268 185.403381,40.029648 
z"/>
</svg>